<mxfile host="app.diagrams.net" agent="Mozilla/5.0 (Windows NT 10.0; Win64; x64) AppleWebKit/537.36 (KHTML, like Gecko) Chrome/135.0.0.0 Safari/537.36 Edg/135.0.0.0" version="27.0.1">
  <diagram name="Page-1" id="9ES8DGGHy8GP_p8P-mcz">
    <mxGraphModel dx="1149" dy="633" grid="1" gridSize="10" guides="1" tooltips="1" connect="1" arrows="1" fold="1" page="1" pageScale="1" pageWidth="850" pageHeight="1100" math="0" shadow="0">
      <root>
        <mxCell id="0" />
        <mxCell id="1" parent="0" />
        <mxCell id="TJkIeTeqpMncl4AM9JZS-7" style="edgeStyle=orthogonalEdgeStyle;rounded=0;orthogonalLoop=1;jettySize=auto;html=1;exitX=0;exitY=0.5;exitDx=0;exitDy=0;entryX=0.5;entryY=0;entryDx=0;entryDy=0;" edge="1" parent="1" source="TJkIeTeqpMncl4AM9JZS-2" target="TJkIeTeqpMncl4AM9JZS-3">
          <mxGeometry relative="1" as="geometry" />
        </mxCell>
        <mxCell id="TJkIeTeqpMncl4AM9JZS-8" style="edgeStyle=orthogonalEdgeStyle;rounded=0;orthogonalLoop=1;jettySize=auto;html=1;exitX=1;exitY=0.5;exitDx=0;exitDy=0;entryX=0.5;entryY=0;entryDx=0;entryDy=0;" edge="1" parent="1" source="TJkIeTeqpMncl4AM9JZS-2" target="TJkIeTeqpMncl4AM9JZS-4">
          <mxGeometry relative="1" as="geometry" />
        </mxCell>
        <mxCell id="TJkIeTeqpMncl4AM9JZS-2" value="2" style="ellipse;whiteSpace=wrap;html=1;aspect=fixed;" vertex="1" parent="1">
          <mxGeometry x="450" y="210" width="40" height="40" as="geometry" />
        </mxCell>
        <mxCell id="TJkIeTeqpMncl4AM9JZS-9" style="edgeStyle=orthogonalEdgeStyle;rounded=0;orthogonalLoop=1;jettySize=auto;html=1;exitX=0;exitY=0.5;exitDx=0;exitDy=0;entryX=0.5;entryY=0;entryDx=0;entryDy=0;" edge="1" parent="1" source="TJkIeTeqpMncl4AM9JZS-3" target="TJkIeTeqpMncl4AM9JZS-5">
          <mxGeometry relative="1" as="geometry" />
        </mxCell>
        <mxCell id="TJkIeTeqpMncl4AM9JZS-10" style="edgeStyle=orthogonalEdgeStyle;rounded=0;orthogonalLoop=1;jettySize=auto;html=1;exitX=0.5;exitY=1;exitDx=0;exitDy=0;entryX=0.5;entryY=0;entryDx=0;entryDy=0;" edge="1" parent="1" source="TJkIeTeqpMncl4AM9JZS-3" target="TJkIeTeqpMncl4AM9JZS-6">
          <mxGeometry relative="1" as="geometry" />
        </mxCell>
        <mxCell id="TJkIeTeqpMncl4AM9JZS-3" value="3" style="ellipse;whiteSpace=wrap;html=1;aspect=fixed;" vertex="1" parent="1">
          <mxGeometry x="200" y="280" width="40" height="40" as="geometry" />
        </mxCell>
        <mxCell id="TJkIeTeqpMncl4AM9JZS-21" style="edgeStyle=orthogonalEdgeStyle;rounded=0;orthogonalLoop=1;jettySize=auto;html=1;exitX=0;exitY=0.5;exitDx=0;exitDy=0;entryX=0.5;entryY=0;entryDx=0;entryDy=0;" edge="1" parent="1" source="TJkIeTeqpMncl4AM9JZS-4" target="TJkIeTeqpMncl4AM9JZS-19">
          <mxGeometry relative="1" as="geometry" />
        </mxCell>
        <mxCell id="TJkIeTeqpMncl4AM9JZS-53" style="edgeStyle=orthogonalEdgeStyle;rounded=0;orthogonalLoop=1;jettySize=auto;html=1;exitX=1;exitY=0.5;exitDx=0;exitDy=0;entryX=0.5;entryY=0;entryDx=0;entryDy=0;" edge="1" parent="1" source="TJkIeTeqpMncl4AM9JZS-4" target="TJkIeTeqpMncl4AM9JZS-20">
          <mxGeometry relative="1" as="geometry" />
        </mxCell>
        <mxCell id="TJkIeTeqpMncl4AM9JZS-4" value="11" style="ellipse;whiteSpace=wrap;html=1;aspect=fixed;" vertex="1" parent="1">
          <mxGeometry x="720" y="290" width="40" height="40" as="geometry" />
        </mxCell>
        <mxCell id="TJkIeTeqpMncl4AM9JZS-85" style="edgeStyle=orthogonalEdgeStyle;rounded=0;orthogonalLoop=1;jettySize=auto;html=1;exitX=0.5;exitY=1;exitDx=0;exitDy=0;entryX=0;entryY=0.5;entryDx=0;entryDy=0;" edge="1" parent="1" source="TJkIeTeqpMncl4AM9JZS-5" target="TJkIeTeqpMncl4AM9JZS-82">
          <mxGeometry relative="1" as="geometry" />
        </mxCell>
        <mxCell id="TJkIeTeqpMncl4AM9JZS-5" value="4" style="ellipse;whiteSpace=wrap;html=1;aspect=fixed;" vertex="1" parent="1">
          <mxGeometry x="120" y="340" width="40" height="40" as="geometry" />
        </mxCell>
        <mxCell id="TJkIeTeqpMncl4AM9JZS-12" style="edgeStyle=orthogonalEdgeStyle;rounded=0;orthogonalLoop=1;jettySize=auto;html=1;exitX=0;exitY=0.5;exitDx=0;exitDy=0;" edge="1" parent="1" source="TJkIeTeqpMncl4AM9JZS-6" target="TJkIeTeqpMncl4AM9JZS-11">
          <mxGeometry relative="1" as="geometry" />
        </mxCell>
        <mxCell id="TJkIeTeqpMncl4AM9JZS-14" style="edgeStyle=orthogonalEdgeStyle;rounded=0;orthogonalLoop=1;jettySize=auto;html=1;exitX=1;exitY=0.5;exitDx=0;exitDy=0;entryX=0.5;entryY=0;entryDx=0;entryDy=0;" edge="1" parent="1" source="TJkIeTeqpMncl4AM9JZS-6" target="TJkIeTeqpMncl4AM9JZS-13">
          <mxGeometry relative="1" as="geometry" />
        </mxCell>
        <mxCell id="TJkIeTeqpMncl4AM9JZS-6" value="5" style="ellipse;whiteSpace=wrap;html=1;aspect=fixed;" vertex="1" parent="1">
          <mxGeometry x="200" y="340" width="40" height="40" as="geometry" />
        </mxCell>
        <mxCell id="TJkIeTeqpMncl4AM9JZS-16" style="edgeStyle=orthogonalEdgeStyle;rounded=0;orthogonalLoop=1;jettySize=auto;html=1;exitX=0.5;exitY=1;exitDx=0;exitDy=0;entryX=0.5;entryY=0;entryDx=0;entryDy=0;" edge="1" parent="1" source="TJkIeTeqpMncl4AM9JZS-11" target="TJkIeTeqpMncl4AM9JZS-15">
          <mxGeometry relative="1" as="geometry" />
        </mxCell>
        <mxCell id="TJkIeTeqpMncl4AM9JZS-11" value="6" style="ellipse;whiteSpace=wrap;html=1;aspect=fixed;" vertex="1" parent="1">
          <mxGeometry x="160" y="400" width="40" height="40" as="geometry" />
        </mxCell>
        <mxCell id="TJkIeTeqpMncl4AM9JZS-18" style="edgeStyle=orthogonalEdgeStyle;rounded=0;orthogonalLoop=1;jettySize=auto;html=1;exitX=0.5;exitY=1;exitDx=0;exitDy=0;entryX=0.5;entryY=0;entryDx=0;entryDy=0;" edge="1" parent="1" source="TJkIeTeqpMncl4AM9JZS-13" target="TJkIeTeqpMncl4AM9JZS-17">
          <mxGeometry relative="1" as="geometry" />
        </mxCell>
        <mxCell id="TJkIeTeqpMncl4AM9JZS-13" value="8" style="ellipse;whiteSpace=wrap;html=1;aspect=fixed;" vertex="1" parent="1">
          <mxGeometry x="240" y="400" width="40" height="40" as="geometry" />
        </mxCell>
        <mxCell id="TJkIeTeqpMncl4AM9JZS-110" style="edgeStyle=orthogonalEdgeStyle;rounded=0;orthogonalLoop=1;jettySize=auto;html=1;exitX=0.5;exitY=1;exitDx=0;exitDy=0;endArrow=none;startFill=0;" edge="1" parent="1" source="TJkIeTeqpMncl4AM9JZS-15">
          <mxGeometry relative="1" as="geometry">
            <mxPoint x="180.25" y="770" as="targetPoint" />
          </mxGeometry>
        </mxCell>
        <mxCell id="TJkIeTeqpMncl4AM9JZS-15" value="7" style="ellipse;whiteSpace=wrap;html=1;aspect=fixed;" vertex="1" parent="1">
          <mxGeometry x="160" y="460" width="40" height="40" as="geometry" />
        </mxCell>
        <mxCell id="TJkIeTeqpMncl4AM9JZS-88" style="edgeStyle=orthogonalEdgeStyle;rounded=0;orthogonalLoop=1;jettySize=auto;html=1;exitX=0.5;exitY=1;exitDx=0;exitDy=0;entryX=0;entryY=0.5;entryDx=0;entryDy=0;" edge="1" parent="1" source="TJkIeTeqpMncl4AM9JZS-17" target="TJkIeTeqpMncl4AM9JZS-82">
          <mxGeometry relative="1" as="geometry" />
        </mxCell>
        <mxCell id="TJkIeTeqpMncl4AM9JZS-17" value="9" style="ellipse;whiteSpace=wrap;html=1;aspect=fixed;" vertex="1" parent="1">
          <mxGeometry x="240" y="460" width="40" height="40" as="geometry" />
        </mxCell>
        <mxCell id="TJkIeTeqpMncl4AM9JZS-29" style="edgeStyle=orthogonalEdgeStyle;rounded=0;orthogonalLoop=1;jettySize=auto;html=1;exitX=0;exitY=0.5;exitDx=0;exitDy=0;entryX=0.5;entryY=0;entryDx=0;entryDy=0;" edge="1" parent="1" source="TJkIeTeqpMncl4AM9JZS-19" target="TJkIeTeqpMncl4AM9JZS-22">
          <mxGeometry relative="1" as="geometry" />
        </mxCell>
        <mxCell id="TJkIeTeqpMncl4AM9JZS-30" style="edgeStyle=orthogonalEdgeStyle;rounded=0;orthogonalLoop=1;jettySize=auto;html=1;exitX=1;exitY=0.5;exitDx=0;exitDy=0;" edge="1" parent="1" source="TJkIeTeqpMncl4AM9JZS-19" target="TJkIeTeqpMncl4AM9JZS-23">
          <mxGeometry relative="1" as="geometry" />
        </mxCell>
        <mxCell id="TJkIeTeqpMncl4AM9JZS-19" value="12" style="ellipse;whiteSpace=wrap;html=1;aspect=fixed;" vertex="1" parent="1">
          <mxGeometry x="420" y="340" width="40" height="40" as="geometry" />
        </mxCell>
        <mxCell id="TJkIeTeqpMncl4AM9JZS-80" style="edgeStyle=orthogonalEdgeStyle;rounded=0;orthogonalLoop=1;jettySize=auto;html=1;exitX=0;exitY=0.5;exitDx=0;exitDy=0;entryX=0.5;entryY=0;entryDx=0;entryDy=0;" edge="1" parent="1" source="TJkIeTeqpMncl4AM9JZS-20" target="TJkIeTeqpMncl4AM9JZS-51">
          <mxGeometry relative="1" as="geometry" />
        </mxCell>
        <mxCell id="TJkIeTeqpMncl4AM9JZS-81" style="edgeStyle=orthogonalEdgeStyle;rounded=0;orthogonalLoop=1;jettySize=auto;html=1;exitX=1;exitY=0.5;exitDx=0;exitDy=0;entryX=0.5;entryY=0;entryDx=0;entryDy=0;" edge="1" parent="1" source="TJkIeTeqpMncl4AM9JZS-20" target="TJkIeTeqpMncl4AM9JZS-52">
          <mxGeometry relative="1" as="geometry" />
        </mxCell>
        <mxCell id="TJkIeTeqpMncl4AM9JZS-20" value="27" style="ellipse;whiteSpace=wrap;html=1;aspect=fixed;" vertex="1" parent="1">
          <mxGeometry x="1000" y="340" width="40" height="40" as="geometry" />
        </mxCell>
        <mxCell id="TJkIeTeqpMncl4AM9JZS-111" style="edgeStyle=orthogonalEdgeStyle;rounded=0;orthogonalLoop=1;jettySize=auto;html=1;exitX=0.5;exitY=1;exitDx=0;exitDy=0;endArrow=none;startFill=0;" edge="1" parent="1" source="TJkIeTeqpMncl4AM9JZS-22">
          <mxGeometry relative="1" as="geometry">
            <mxPoint x="349.8888888888889" y="770" as="targetPoint" />
          </mxGeometry>
        </mxCell>
        <mxCell id="TJkIeTeqpMncl4AM9JZS-22" value="13" style="ellipse;whiteSpace=wrap;html=1;aspect=fixed;" vertex="1" parent="1">
          <mxGeometry x="330" y="400" width="40" height="40" as="geometry" />
        </mxCell>
        <mxCell id="TJkIeTeqpMncl4AM9JZS-32" style="edgeStyle=orthogonalEdgeStyle;rounded=0;orthogonalLoop=1;jettySize=auto;html=1;exitX=0;exitY=0.5;exitDx=0;exitDy=0;entryX=0.5;entryY=0;entryDx=0;entryDy=0;" edge="1" parent="1" source="TJkIeTeqpMncl4AM9JZS-23" target="TJkIeTeqpMncl4AM9JZS-24">
          <mxGeometry relative="1" as="geometry" />
        </mxCell>
        <mxCell id="TJkIeTeqpMncl4AM9JZS-34" style="edgeStyle=orthogonalEdgeStyle;rounded=0;orthogonalLoop=1;jettySize=auto;html=1;exitX=1;exitY=0.5;exitDx=0;exitDy=0;entryX=0.5;entryY=0;entryDx=0;entryDy=0;" edge="1" parent="1" source="TJkIeTeqpMncl4AM9JZS-23" target="TJkIeTeqpMncl4AM9JZS-28">
          <mxGeometry relative="1" as="geometry" />
        </mxCell>
        <mxCell id="TJkIeTeqpMncl4AM9JZS-23" value="14" style="ellipse;whiteSpace=wrap;html=1;aspect=fixed;" vertex="1" parent="1">
          <mxGeometry x="510" y="400" width="40" height="40" as="geometry" />
        </mxCell>
        <mxCell id="TJkIeTeqpMncl4AM9JZS-36" style="edgeStyle=orthogonalEdgeStyle;rounded=0;orthogonalLoop=1;jettySize=auto;html=1;exitX=0;exitY=0.5;exitDx=0;exitDy=0;entryX=0.5;entryY=0;entryDx=0;entryDy=0;" edge="1" parent="1" source="TJkIeTeqpMncl4AM9JZS-24" target="TJkIeTeqpMncl4AM9JZS-25">
          <mxGeometry relative="1" as="geometry" />
        </mxCell>
        <mxCell id="TJkIeTeqpMncl4AM9JZS-37" style="edgeStyle=orthogonalEdgeStyle;rounded=0;orthogonalLoop=1;jettySize=auto;html=1;exitX=1;exitY=0.5;exitDx=0;exitDy=0;entryX=0.5;entryY=0;entryDx=0;entryDy=0;" edge="1" parent="1" source="TJkIeTeqpMncl4AM9JZS-24" target="TJkIeTeqpMncl4AM9JZS-26">
          <mxGeometry relative="1" as="geometry" />
        </mxCell>
        <mxCell id="TJkIeTeqpMncl4AM9JZS-24" value="15" style="ellipse;whiteSpace=wrap;html=1;aspect=fixed;" vertex="1" parent="1">
          <mxGeometry x="400" y="460" width="40" height="40" as="geometry" />
        </mxCell>
        <mxCell id="TJkIeTeqpMncl4AM9JZS-89" style="edgeStyle=orthogonalEdgeStyle;rounded=0;orthogonalLoop=1;jettySize=auto;html=1;exitX=0.5;exitY=1;exitDx=0;exitDy=0;entryX=0;entryY=0.5;entryDx=0;entryDy=0;" edge="1" parent="1" source="TJkIeTeqpMncl4AM9JZS-25" target="TJkIeTeqpMncl4AM9JZS-82">
          <mxGeometry relative="1" as="geometry" />
        </mxCell>
        <mxCell id="TJkIeTeqpMncl4AM9JZS-25" value="16" style="ellipse;whiteSpace=wrap;html=1;aspect=fixed;" vertex="1" parent="1">
          <mxGeometry x="360" y="520" width="40" height="40" as="geometry" />
        </mxCell>
        <mxCell id="TJkIeTeqpMncl4AM9JZS-38" style="edgeStyle=orthogonalEdgeStyle;rounded=0;orthogonalLoop=1;jettySize=auto;html=1;exitX=0.5;exitY=1;exitDx=0;exitDy=0;entryX=0.5;entryY=0;entryDx=0;entryDy=0;" edge="1" parent="1" source="TJkIeTeqpMncl4AM9JZS-26" target="TJkIeTeqpMncl4AM9JZS-27">
          <mxGeometry relative="1" as="geometry" />
        </mxCell>
        <mxCell id="TJkIeTeqpMncl4AM9JZS-26" value="17" style="ellipse;whiteSpace=wrap;html=1;aspect=fixed;" vertex="1" parent="1">
          <mxGeometry x="440" y="520" width="40" height="40" as="geometry" />
        </mxCell>
        <mxCell id="TJkIeTeqpMncl4AM9JZS-90" style="edgeStyle=orthogonalEdgeStyle;rounded=0;orthogonalLoop=1;jettySize=auto;html=1;exitX=0.5;exitY=1;exitDx=0;exitDy=0;entryX=0;entryY=0.5;entryDx=0;entryDy=0;" edge="1" parent="1" source="TJkIeTeqpMncl4AM9JZS-27" target="TJkIeTeqpMncl4AM9JZS-82">
          <mxGeometry relative="1" as="geometry" />
        </mxCell>
        <mxCell id="TJkIeTeqpMncl4AM9JZS-27" value="18" style="ellipse;whiteSpace=wrap;html=1;aspect=fixed;" vertex="1" parent="1">
          <mxGeometry x="440" y="580" width="40" height="40" as="geometry" />
        </mxCell>
        <mxCell id="TJkIeTeqpMncl4AM9JZS-45" style="edgeStyle=orthogonalEdgeStyle;rounded=0;orthogonalLoop=1;jettySize=auto;html=1;exitX=0;exitY=0.5;exitDx=0;exitDy=0;entryX=0.5;entryY=0;entryDx=0;entryDy=0;" edge="1" parent="1" source="TJkIeTeqpMncl4AM9JZS-28" target="TJkIeTeqpMncl4AM9JZS-39">
          <mxGeometry relative="1" as="geometry" />
        </mxCell>
        <mxCell id="TJkIeTeqpMncl4AM9JZS-46" style="edgeStyle=orthogonalEdgeStyle;rounded=0;orthogonalLoop=1;jettySize=auto;html=1;exitX=1;exitY=0.5;exitDx=0;exitDy=0;entryX=0.5;entryY=0;entryDx=0;entryDy=0;" edge="1" parent="1" source="TJkIeTeqpMncl4AM9JZS-28" target="TJkIeTeqpMncl4AM9JZS-40">
          <mxGeometry relative="1" as="geometry" />
        </mxCell>
        <mxCell id="TJkIeTeqpMncl4AM9JZS-28" value="19" style="ellipse;whiteSpace=wrap;html=1;aspect=fixed;" vertex="1" parent="1">
          <mxGeometry x="620" y="460" width="40" height="40" as="geometry" />
        </mxCell>
        <mxCell id="TJkIeTeqpMncl4AM9JZS-47" style="edgeStyle=orthogonalEdgeStyle;rounded=0;orthogonalLoop=1;jettySize=auto;html=1;exitX=0;exitY=0.5;exitDx=0;exitDy=0;entryX=0.5;entryY=0;entryDx=0;entryDy=0;" edge="1" parent="1" source="TJkIeTeqpMncl4AM9JZS-39" target="TJkIeTeqpMncl4AM9JZS-41">
          <mxGeometry relative="1" as="geometry" />
        </mxCell>
        <mxCell id="TJkIeTeqpMncl4AM9JZS-48" style="edgeStyle=orthogonalEdgeStyle;rounded=0;orthogonalLoop=1;jettySize=auto;html=1;exitX=1;exitY=0.5;exitDx=0;exitDy=0;entryX=0.5;entryY=0;entryDx=0;entryDy=0;" edge="1" parent="1" source="TJkIeTeqpMncl4AM9JZS-39" target="TJkIeTeqpMncl4AM9JZS-42">
          <mxGeometry relative="1" as="geometry" />
        </mxCell>
        <mxCell id="TJkIeTeqpMncl4AM9JZS-39" value="20" style="ellipse;whiteSpace=wrap;html=1;aspect=fixed;" vertex="1" parent="1">
          <mxGeometry x="560" y="520" width="40" height="40" as="geometry" />
        </mxCell>
        <mxCell id="TJkIeTeqpMncl4AM9JZS-50" style="edgeStyle=orthogonalEdgeStyle;rounded=0;orthogonalLoop=1;jettySize=auto;html=1;exitX=0.5;exitY=1;exitDx=0;exitDy=0;" edge="1" parent="1" source="TJkIeTeqpMncl4AM9JZS-40" target="TJkIeTeqpMncl4AM9JZS-44">
          <mxGeometry relative="1" as="geometry" />
        </mxCell>
        <mxCell id="TJkIeTeqpMncl4AM9JZS-40" value="24" style="ellipse;whiteSpace=wrap;html=1;aspect=fixed;" vertex="1" parent="1">
          <mxGeometry x="680" y="520" width="40" height="40" as="geometry" />
        </mxCell>
        <mxCell id="TJkIeTeqpMncl4AM9JZS-91" style="edgeStyle=orthogonalEdgeStyle;rounded=0;orthogonalLoop=1;jettySize=auto;html=1;exitX=0.5;exitY=1;exitDx=0;exitDy=0;entryX=0;entryY=0.5;entryDx=0;entryDy=0;" edge="1" parent="1" source="TJkIeTeqpMncl4AM9JZS-41" target="TJkIeTeqpMncl4AM9JZS-82">
          <mxGeometry relative="1" as="geometry" />
        </mxCell>
        <mxCell id="TJkIeTeqpMncl4AM9JZS-41" value="21" style="ellipse;whiteSpace=wrap;html=1;aspect=fixed;" vertex="1" parent="1">
          <mxGeometry x="520" y="580" width="40" height="40" as="geometry" />
        </mxCell>
        <mxCell id="TJkIeTeqpMncl4AM9JZS-49" style="edgeStyle=orthogonalEdgeStyle;rounded=0;orthogonalLoop=1;jettySize=auto;html=1;exitX=0.5;exitY=1;exitDx=0;exitDy=0;entryX=0.5;entryY=0;entryDx=0;entryDy=0;" edge="1" parent="1" source="TJkIeTeqpMncl4AM9JZS-42" target="TJkIeTeqpMncl4AM9JZS-43">
          <mxGeometry relative="1" as="geometry" />
        </mxCell>
        <mxCell id="TJkIeTeqpMncl4AM9JZS-42" value="22" style="ellipse;whiteSpace=wrap;html=1;aspect=fixed;" vertex="1" parent="1">
          <mxGeometry x="600" y="580" width="40" height="40" as="geometry" />
        </mxCell>
        <mxCell id="TJkIeTeqpMncl4AM9JZS-92" style="edgeStyle=orthogonalEdgeStyle;rounded=0;orthogonalLoop=1;jettySize=auto;html=1;exitX=0.5;exitY=1;exitDx=0;exitDy=0;entryX=0.5;entryY=0;entryDx=0;entryDy=0;" edge="1" parent="1" source="TJkIeTeqpMncl4AM9JZS-43" target="TJkIeTeqpMncl4AM9JZS-82">
          <mxGeometry relative="1" as="geometry">
            <mxPoint x="620.3333333333333" y="740" as="targetPoint" />
          </mxGeometry>
        </mxCell>
        <mxCell id="TJkIeTeqpMncl4AM9JZS-43" value="23" style="ellipse;whiteSpace=wrap;html=1;aspect=fixed;" vertex="1" parent="1">
          <mxGeometry x="600" y="640" width="40" height="40" as="geometry" />
        </mxCell>
        <mxCell id="TJkIeTeqpMncl4AM9JZS-93" style="edgeStyle=orthogonalEdgeStyle;rounded=0;orthogonalLoop=1;jettySize=auto;html=1;exitX=0.5;exitY=1;exitDx=0;exitDy=0;entryX=1;entryY=0.5;entryDx=0;entryDy=0;" edge="1" parent="1" source="TJkIeTeqpMncl4AM9JZS-44" target="TJkIeTeqpMncl4AM9JZS-82">
          <mxGeometry relative="1" as="geometry" />
        </mxCell>
        <mxCell id="TJkIeTeqpMncl4AM9JZS-44" value="25" style="ellipse;whiteSpace=wrap;html=1;aspect=fixed;" vertex="1" parent="1">
          <mxGeometry x="680" y="580" width="40" height="40" as="geometry" />
        </mxCell>
        <mxCell id="TJkIeTeqpMncl4AM9JZS-56" style="edgeStyle=orthogonalEdgeStyle;rounded=0;orthogonalLoop=1;jettySize=auto;html=1;exitX=0;exitY=0.5;exitDx=0;exitDy=0;entryX=0.5;entryY=0;entryDx=0;entryDy=0;" edge="1" parent="1" source="TJkIeTeqpMncl4AM9JZS-51" target="TJkIeTeqpMncl4AM9JZS-54">
          <mxGeometry relative="1" as="geometry" />
        </mxCell>
        <mxCell id="TJkIeTeqpMncl4AM9JZS-57" style="edgeStyle=orthogonalEdgeStyle;rounded=0;orthogonalLoop=1;jettySize=auto;html=1;exitX=1;exitY=0.5;exitDx=0;exitDy=0;entryX=0.5;entryY=0;entryDx=0;entryDy=0;" edge="1" parent="1" source="TJkIeTeqpMncl4AM9JZS-51" target="TJkIeTeqpMncl4AM9JZS-55">
          <mxGeometry relative="1" as="geometry" />
        </mxCell>
        <mxCell id="TJkIeTeqpMncl4AM9JZS-51" value="28" style="ellipse;whiteSpace=wrap;html=1;aspect=fixed;" vertex="1" parent="1">
          <mxGeometry x="860" y="400" width="40" height="40" as="geometry" />
        </mxCell>
        <mxCell id="TJkIeTeqpMncl4AM9JZS-106" style="edgeStyle=orthogonalEdgeStyle;rounded=0;orthogonalLoop=1;jettySize=auto;html=1;exitX=0.5;exitY=1;exitDx=0;exitDy=0;entryX=1;entryY=0.5;entryDx=0;entryDy=0;" edge="1" parent="1" source="TJkIeTeqpMncl4AM9JZS-52" target="TJkIeTeqpMncl4AM9JZS-82">
          <mxGeometry relative="1" as="geometry" />
        </mxCell>
        <mxCell id="TJkIeTeqpMncl4AM9JZS-52" value="43" style="ellipse;whiteSpace=wrap;html=1;aspect=fixed;" vertex="1" parent="1">
          <mxGeometry x="1150" y="390" width="40" height="40" as="geometry" />
        </mxCell>
        <mxCell id="TJkIeTeqpMncl4AM9JZS-94" style="edgeStyle=orthogonalEdgeStyle;rounded=0;orthogonalLoop=1;jettySize=auto;html=1;exitX=0.5;exitY=1;exitDx=0;exitDy=0;entryX=1;entryY=0.5;entryDx=0;entryDy=0;" edge="1" parent="1" source="TJkIeTeqpMncl4AM9JZS-54" target="TJkIeTeqpMncl4AM9JZS-82">
          <mxGeometry relative="1" as="geometry" />
        </mxCell>
        <mxCell id="TJkIeTeqpMncl4AM9JZS-54" value="29" style="ellipse;whiteSpace=wrap;html=1;aspect=fixed;" vertex="1" parent="1">
          <mxGeometry x="760" y="460" width="40" height="40" as="geometry" />
        </mxCell>
        <mxCell id="TJkIeTeqpMncl4AM9JZS-60" style="edgeStyle=orthogonalEdgeStyle;rounded=0;orthogonalLoop=1;jettySize=auto;html=1;exitX=0;exitY=0.5;exitDx=0;exitDy=0;entryX=0.5;entryY=0;entryDx=0;entryDy=0;" edge="1" parent="1" source="TJkIeTeqpMncl4AM9JZS-55" target="TJkIeTeqpMncl4AM9JZS-58">
          <mxGeometry relative="1" as="geometry" />
        </mxCell>
        <mxCell id="TJkIeTeqpMncl4AM9JZS-61" style="edgeStyle=orthogonalEdgeStyle;rounded=0;orthogonalLoop=1;jettySize=auto;html=1;exitX=1;exitY=0.5;exitDx=0;exitDy=0;entryX=0.5;entryY=0;entryDx=0;entryDy=0;" edge="1" parent="1" source="TJkIeTeqpMncl4AM9JZS-55" target="TJkIeTeqpMncl4AM9JZS-59">
          <mxGeometry relative="1" as="geometry" />
        </mxCell>
        <mxCell id="TJkIeTeqpMncl4AM9JZS-55" value="30" style="ellipse;whiteSpace=wrap;html=1;aspect=fixed;" vertex="1" parent="1">
          <mxGeometry x="960" y="460" width="40" height="40" as="geometry" />
        </mxCell>
        <mxCell id="TJkIeTeqpMncl4AM9JZS-64" style="edgeStyle=orthogonalEdgeStyle;rounded=0;orthogonalLoop=1;jettySize=auto;html=1;exitX=0;exitY=0.5;exitDx=0;exitDy=0;entryX=0.5;entryY=0;entryDx=0;entryDy=0;" edge="1" parent="1" source="TJkIeTeqpMncl4AM9JZS-58" target="TJkIeTeqpMncl4AM9JZS-62">
          <mxGeometry relative="1" as="geometry" />
        </mxCell>
        <mxCell id="TJkIeTeqpMncl4AM9JZS-65" style="edgeStyle=orthogonalEdgeStyle;rounded=0;orthogonalLoop=1;jettySize=auto;html=1;exitX=1;exitY=0.5;exitDx=0;exitDy=0;entryX=0.5;entryY=0;entryDx=0;entryDy=0;" edge="1" parent="1" source="TJkIeTeqpMncl4AM9JZS-58" target="TJkIeTeqpMncl4AM9JZS-63">
          <mxGeometry relative="1" as="geometry" />
        </mxCell>
        <mxCell id="TJkIeTeqpMncl4AM9JZS-58" value="31" style="ellipse;whiteSpace=wrap;html=1;aspect=fixed;" vertex="1" parent="1">
          <mxGeometry x="860" y="520" width="40" height="40" as="geometry" />
        </mxCell>
        <mxCell id="TJkIeTeqpMncl4AM9JZS-76" style="edgeStyle=orthogonalEdgeStyle;rounded=0;orthogonalLoop=1;jettySize=auto;html=1;exitX=0;exitY=0.5;exitDx=0;exitDy=0;entryX=0.5;entryY=0;entryDx=0;entryDy=0;" edge="1" parent="1" source="TJkIeTeqpMncl4AM9JZS-59" target="TJkIeTeqpMncl4AM9JZS-67">
          <mxGeometry relative="1" as="geometry" />
        </mxCell>
        <mxCell id="TJkIeTeqpMncl4AM9JZS-77" style="edgeStyle=orthogonalEdgeStyle;rounded=0;orthogonalLoop=1;jettySize=auto;html=1;exitX=1;exitY=0.5;exitDx=0;exitDy=0;entryX=0.5;entryY=0;entryDx=0;entryDy=0;" edge="1" parent="1" source="TJkIeTeqpMncl4AM9JZS-59" target="TJkIeTeqpMncl4AM9JZS-68">
          <mxGeometry relative="1" as="geometry" />
        </mxCell>
        <mxCell id="TJkIeTeqpMncl4AM9JZS-59" value="35" style="ellipse;whiteSpace=wrap;html=1;aspect=fixed;" vertex="1" parent="1">
          <mxGeometry x="1059" y="520" width="40" height="40" as="geometry" />
        </mxCell>
        <mxCell id="TJkIeTeqpMncl4AM9JZS-104" style="edgeStyle=orthogonalEdgeStyle;rounded=0;orthogonalLoop=1;jettySize=auto;html=1;exitX=0.5;exitY=1;exitDx=0;exitDy=0;entryX=1;entryY=0.5;entryDx=0;entryDy=0;" edge="1" parent="1" source="TJkIeTeqpMncl4AM9JZS-62" target="TJkIeTeqpMncl4AM9JZS-82">
          <mxGeometry relative="1" as="geometry" />
        </mxCell>
        <mxCell id="TJkIeTeqpMncl4AM9JZS-62" value="32" style="ellipse;whiteSpace=wrap;html=1;aspect=fixed;" vertex="1" parent="1">
          <mxGeometry x="820" y="580" width="40" height="40" as="geometry" />
        </mxCell>
        <mxCell id="TJkIeTeqpMncl4AM9JZS-96" style="edgeStyle=orthogonalEdgeStyle;rounded=0;orthogonalLoop=1;jettySize=auto;html=1;exitX=0.5;exitY=1;exitDx=0;exitDy=0;entryX=0.5;entryY=0;entryDx=0;entryDy=0;" edge="1" parent="1" source="TJkIeTeqpMncl4AM9JZS-63" target="TJkIeTeqpMncl4AM9JZS-66">
          <mxGeometry relative="1" as="geometry" />
        </mxCell>
        <mxCell id="TJkIeTeqpMncl4AM9JZS-63" value="33" style="ellipse;whiteSpace=wrap;html=1;aspect=fixed;" vertex="1" parent="1">
          <mxGeometry x="900" y="580" width="40" height="40" as="geometry" />
        </mxCell>
        <mxCell id="TJkIeTeqpMncl4AM9JZS-97" style="edgeStyle=orthogonalEdgeStyle;rounded=0;orthogonalLoop=1;jettySize=auto;html=1;exitX=0.5;exitY=1;exitDx=0;exitDy=0;entryX=1;entryY=0.5;entryDx=0;entryDy=0;" edge="1" parent="1" source="TJkIeTeqpMncl4AM9JZS-66" target="TJkIeTeqpMncl4AM9JZS-82">
          <mxGeometry relative="1" as="geometry" />
        </mxCell>
        <mxCell id="TJkIeTeqpMncl4AM9JZS-66" value="34" style="ellipse;whiteSpace=wrap;html=1;aspect=fixed;" vertex="1" parent="1">
          <mxGeometry x="900" y="640" width="40" height="40" as="geometry" />
        </mxCell>
        <mxCell id="TJkIeTeqpMncl4AM9JZS-72" style="edgeStyle=orthogonalEdgeStyle;rounded=0;orthogonalLoop=1;jettySize=auto;html=1;exitX=0;exitY=0.5;exitDx=0;exitDy=0;entryX=0.5;entryY=0;entryDx=0;entryDy=0;" edge="1" parent="1" source="TJkIeTeqpMncl4AM9JZS-67" target="TJkIeTeqpMncl4AM9JZS-69">
          <mxGeometry relative="1" as="geometry" />
        </mxCell>
        <mxCell id="TJkIeTeqpMncl4AM9JZS-73" style="edgeStyle=orthogonalEdgeStyle;rounded=0;orthogonalLoop=1;jettySize=auto;html=1;exitX=1;exitY=0.5;exitDx=0;exitDy=0;entryX=0.5;entryY=0;entryDx=0;entryDy=0;" edge="1" parent="1" source="TJkIeTeqpMncl4AM9JZS-67" target="TJkIeTeqpMncl4AM9JZS-70">
          <mxGeometry relative="1" as="geometry" />
        </mxCell>
        <mxCell id="TJkIeTeqpMncl4AM9JZS-67" value="36" style="ellipse;whiteSpace=wrap;html=1;aspect=fixed;" vertex="1" parent="1">
          <mxGeometry x="1010" y="580" width="40" height="40" as="geometry" />
        </mxCell>
        <mxCell id="TJkIeTeqpMncl4AM9JZS-79" style="edgeStyle=orthogonalEdgeStyle;rounded=0;orthogonalLoop=1;jettySize=auto;html=1;exitX=0.5;exitY=1;exitDx=0;exitDy=0;entryX=0.5;entryY=0;entryDx=0;entryDy=0;" edge="1" parent="1" source="TJkIeTeqpMncl4AM9JZS-68" target="TJkIeTeqpMncl4AM9JZS-75">
          <mxGeometry relative="1" as="geometry" />
        </mxCell>
        <mxCell id="TJkIeTeqpMncl4AM9JZS-68" value="40" style="ellipse;whiteSpace=wrap;html=1;aspect=fixed;" vertex="1" parent="1">
          <mxGeometry x="1110" y="580" width="40" height="40" as="geometry" />
        </mxCell>
        <mxCell id="TJkIeTeqpMncl4AM9JZS-99" style="edgeStyle=orthogonalEdgeStyle;rounded=0;orthogonalLoop=1;jettySize=auto;html=1;exitX=0.5;exitY=1;exitDx=0;exitDy=0;entryX=1;entryY=0.5;entryDx=0;entryDy=0;" edge="1" parent="1" source="TJkIeTeqpMncl4AM9JZS-69" target="TJkIeTeqpMncl4AM9JZS-82">
          <mxGeometry relative="1" as="geometry" />
        </mxCell>
        <mxCell id="TJkIeTeqpMncl4AM9JZS-69" value="37" style="ellipse;whiteSpace=wrap;html=1;aspect=fixed;" vertex="1" parent="1">
          <mxGeometry x="970" y="640" width="40" height="40" as="geometry" />
        </mxCell>
        <mxCell id="TJkIeTeqpMncl4AM9JZS-100" style="edgeStyle=orthogonalEdgeStyle;rounded=0;orthogonalLoop=1;jettySize=auto;html=1;exitX=0.5;exitY=1;exitDx=0;exitDy=0;" edge="1" parent="1" source="TJkIeTeqpMncl4AM9JZS-70" target="TJkIeTeqpMncl4AM9JZS-74">
          <mxGeometry relative="1" as="geometry" />
        </mxCell>
        <mxCell id="TJkIeTeqpMncl4AM9JZS-70" value="38" style="ellipse;whiteSpace=wrap;html=1;aspect=fixed;" vertex="1" parent="1">
          <mxGeometry x="1050" y="640" width="40" height="40" as="geometry" />
        </mxCell>
        <mxCell id="TJkIeTeqpMncl4AM9JZS-101" style="edgeStyle=orthogonalEdgeStyle;rounded=0;orthogonalLoop=1;jettySize=auto;html=1;exitX=0.5;exitY=1;exitDx=0;exitDy=0;entryX=1;entryY=0.5;entryDx=0;entryDy=0;" edge="1" parent="1" source="TJkIeTeqpMncl4AM9JZS-74" target="TJkIeTeqpMncl4AM9JZS-82">
          <mxGeometry relative="1" as="geometry" />
        </mxCell>
        <mxCell id="TJkIeTeqpMncl4AM9JZS-74" value="39" style="ellipse;whiteSpace=wrap;html=1;aspect=fixed;" vertex="1" parent="1">
          <mxGeometry x="1050" y="700" width="40" height="40" as="geometry" />
        </mxCell>
        <mxCell id="TJkIeTeqpMncl4AM9JZS-103" style="edgeStyle=orthogonalEdgeStyle;rounded=0;orthogonalLoop=1;jettySize=auto;html=1;exitX=0.5;exitY=1;exitDx=0;exitDy=0;entryX=1;entryY=0.5;entryDx=0;entryDy=0;" edge="1" parent="1" source="TJkIeTeqpMncl4AM9JZS-75" target="TJkIeTeqpMncl4AM9JZS-82">
          <mxGeometry relative="1" as="geometry" />
        </mxCell>
        <mxCell id="TJkIeTeqpMncl4AM9JZS-75" value="41" style="ellipse;whiteSpace=wrap;html=1;aspect=fixed;" vertex="1" parent="1">
          <mxGeometry x="1110" y="640" width="40" height="40" as="geometry" />
        </mxCell>
        <mxCell id="TJkIeTeqpMncl4AM9JZS-84" value="" style="group" vertex="1" connectable="0" parent="1">
          <mxGeometry x="600" y="750" width="40" height="40" as="geometry" />
        </mxCell>
        <mxCell id="TJkIeTeqpMncl4AM9JZS-82" value="" style="ellipse;whiteSpace=wrap;html=1;aspect=fixed;" vertex="1" parent="TJkIeTeqpMncl4AM9JZS-84">
          <mxGeometry width="40" height="40" as="geometry" />
        </mxCell>
        <mxCell id="TJkIeTeqpMncl4AM9JZS-83" value="" style="ellipse;whiteSpace=wrap;html=1;aspect=fixed;fillColor=#000000;strokeColor=light-dark(#000000, #6d5100);" vertex="1" parent="TJkIeTeqpMncl4AM9JZS-84">
          <mxGeometry x="5" y="5" width="30" height="30" as="geometry" />
        </mxCell>
        <mxCell id="TJkIeTeqpMncl4AM9JZS-109" style="edgeStyle=orthogonalEdgeStyle;rounded=0;orthogonalLoop=1;jettySize=auto;html=1;exitX=0.5;exitY=1;exitDx=0;exitDy=0;entryX=0.5;entryY=0;entryDx=0;entryDy=0;startSize=8;jumpSize=7;strokeWidth=2;" edge="1" parent="1" source="TJkIeTeqpMncl4AM9JZS-108" target="TJkIeTeqpMncl4AM9JZS-2">
          <mxGeometry relative="1" as="geometry" />
        </mxCell>
        <mxCell id="TJkIeTeqpMncl4AM9JZS-108" value="" style="ellipse;whiteSpace=wrap;html=1;aspect=fixed;gradientColor=none;fillColor=light-dark(#090c08, #ededed);" vertex="1" parent="1">
          <mxGeometry x="460" y="170" width="20" height="20" as="geometry" />
        </mxCell>
      </root>
    </mxGraphModel>
  </diagram>
</mxfile>
